<?xml version="1.0" encoding="UTF-8" standalone="no"?>
<!-- Created with Inkscape (http://www.inkscape.org/) -->

<svg
   version="1.1"
   id="svg198"
   width="1087.6633"
   height="1102.887"
   viewBox="0 0 1087.6633 1102.887"
   sodipodi:docname="Boat1c.svg"
   inkscape:version="1.2.2 (732a01da63, 2022-12-09, custom)"
   xmlns:inkscape="http://www.inkscape.org/namespaces/inkscape"
   xmlns:sodipodi="http://sodipodi.sourceforge.net/DTD/sodipodi-0.dtd"
   xmlns="http://www.w3.org/2000/svg"
   xmlns:svg="http://www.w3.org/2000/svg">
  <defs
     id="defs202" />
  <sodipodi:namedview
     id="namedview200"
     pagecolor="#ffffff"
     bordercolor="#000000"
     borderopacity="0.25"
     inkscape:showpageshadow="2"
     inkscape:pageopacity="0.0"
     inkscape:pagecheckerboard="0"
     inkscape:deskcolor="#d1d1d1"
     showgrid="false"
     inkscape:zoom="0.59312321"
     inkscape:cx="553.00483"
     inkscape:cy="660.90821"
     inkscape:window-width="1920"
     inkscape:window-height="1031"
     inkscape:window-x="0"
     inkscape:window-y="25"
     inkscape:window-maximized="1"
     inkscape:current-layer="layer1" />
  <g
     inkscape:groupmode="layer"
     id="layer1"
     inkscape:label="Layer 1"
     style="fill:#a05a2c">
    <path
       id="path316"
       style="fill:#000000;display:inline;stroke-width:1.33333"
       d="m 835.20754,0.001953 c 3.15462,-0.053956 6.32893,1.485186 9.46485,4.621094 7.93901,7.939018 8.66211,13.181402 8.66211,62.718747 v 43.972656 l 47.27929,238.78516 c 26.00389,131.33197 57.29391,289.48669 69.53321,351.45312 12.2393,61.96643 22.68524,113.15684 23.21094,113.75586 0.52566,0.59902 21.76736,-4.11806 47.20506,-10.48242 25.4377,-6.36442 46.5807,-11.24156 46.9844,-10.83789 1.0851,1.08514 -5.6031,43.09657 -11.6055,72.89843 -8.4816,42.11144 -19.4373,82.83958 -30.1269,112.00003 -6.8567,18.7046 -22.0405,48.73106 -29.8067,58.94326 -18.42958,24.2339 -70.41731,55.1704 -106.00779,63.0821 -6.55572,1.4578 -62.39915,1.7351 -309.33203,1.5429 l -301.33398,-0.2343 -8.94141,-3.4805 c -17.45877,-6.7948 -38.03007,-20.848 -61.9707,-42.3359 l -13.10938,-11.7676 -4.30468,2.7929 c -2.36785,1.5353 -4.31327,3.2394 -4.32227,3.7872 -0.0214,1.2189 14.19755,16.6072 33.88477,36.6699 l 14.7207,15 h -76.83789 c -73.18892,0 -77.24982,-0.1279 -85.511717,-2.6797 -23.5368,-7.2698 -48.1432,-34.7662 -52.7344,-58.9277 -0.7413,-3.9014 -1.6761,-41.65126 -2.0879,-84.39259 -0.4098,-42.53307 -1.1143,-78.6472 -1.5664,-80.2539 -0.7433,-2.6417 -1.4447,-2.84719 -7.3281,-2.15039 -6.2083,0.7353 -6.7442,0.53121 -11.7051,-4.42969 -9.0015,-9.00146 -10.3361,-26.57375 -2.5683,-33.81055 3.5155,-3.27519 2.7603,-4.97787 -7.6661,-17.29297 -4.0063,-4.73258 -7.28509995663,-8.99898 -7.28509995663,-9.48046 0,-0.95888 49.79569995663,-4.46026 64.49999995663,-4.53516 l 9.166,-0.0469 3.9473,10.33399 c 3.5957,9.4153 4.2701,10.33203 7.5996,10.33203 7.9813,0 34.379097,-5.6641 54.365217,-11.66602 l 21.08984,-6.33398 6.69922,-48.66602 6.69922,-48.66601 -5.36523,-0.90234 c -2.95145,-0.49564 -13.91723,-0.9456 -24.36719,-1 -10.45008,-0.0543 -18.99998,-0.45808 -18.99998,-0.89844 0,-2.27165 16.47085,-34.7053 22.61521,-44.53321 33.72277,-53.93952 98.78065,-121.27498 206.66602,-213.90234 27.09484,-23.2629 73.3018,-61.44522 149.38476,-123.4375 C 627.30103,225.0818 661.58985,195.87102 714.66848,146.07226 756.32705,106.98771 784.09277,75.667224 804.37356,44.886719 l 10.54297,-16 -0.77539,78.667961 c -0.42657,43.26651 -1.43824,216.06735 -2.24805,384 -0.80982,167.9327 -1.6682,306.00627 -1.9082,306.83008 -0.69236,2.37655 -18.91681,9.39741 -31.31641,12.06445 -15.49918,3.3337 -69.87683,3.31368 -95.33398,-0.0352 -52.14749,-6.85984 -102.24786,-17.23287 -220.66602,-45.6875 -105.67808,-25.39335 -151.3599,-35.44292 -198.66797,-43.70899 -28.06283,-4.90333 -66.10825,-10.1319 -73.71679,-10.1289 h -4.28321 l -6.20507,45.66601 c -3.41301,25.11592 -6.02134,45.85617 -5.79688,46.08985 0.22447,0.23368 8.72125,-1.66346 18.88086,-4.2168 28.17677,-7.08146 40.28454,-8.14442 73.17773,-6.42578 28.56635,1.49256 40.31446,3.49835 47.86719,8.17578 8.95925,5.54846 11.5966,17.78177 5.41602,25.12695 -8.33118,9.90108 -32.14943,13.84069 -94.57227,15.64258 -25.47208,0.73527 -31.04847,1.30107 -43.33398,4.39258 l -14.09961,3.54687 -1.42969,9.55274 -1.43164,9.55273 27.43164,6.7461 c 32.38107,7.96486 58.29903,13.24852 92.0957,18.77148 28.51193,4.6594 62.7223,9.37695 67.99414,9.37695 h 3.63282 l -0.14649,-17.66601 c -0.17058,-20.57532 1.74419,-26.55094 9.85352,-30.75 6.27178,-3.2475 21.08181,-2.49235 28.80859,1.46875 8.10989,4.15756 9.19141,7.90084 9.19141,31.82812 v 20.21289 l 8,0.79102 c 70.50778,6.95866 200.47154,7.90311 284.66601,2.07031 21.75011,-1.5068 69.86179,-6.14673 76.66797,-7.39453 l 4,-0.73437 v -19.58008 c 0,-16.65182 0.35877,-20.10773 2.39844,-23.11133 3.67143,-5.40666 9.41553,-7.13477 23.71484,-7.13477 h 12.7793 l 0.88672,-248.66601 c 0.48736,-136.76611 0.88651,-323.40793 0.88672,-414.75781 4.4e-4,-183.789019 -0.40339,-175.050324 8.52539,-184.517578 3.05746,-3.241839 6.19307,-4.889403 9.34765,-4.943359 z m 18.42188,172.884757 -0.14648,335.72657 -0.14844,335.72851 5,-1.06054 c 13.74824,-2.91579 27.50775,-0.006 31.29297,6.61914 0.9384,1.64236 2.00637,8.83305 2.37304,15.97851 l 0.66797,12.99219 17.52344,-5.96484 c 9.63797,-3.2808 27.9374,-10.2259 40.66602,-15.4336 12.72857,-5.20766 25.69391,-10.44986 28.81054,-11.64844 3.65805,-1.40673 5.66602,-3.00164 5.66602,-4.49804 0,-2.1363 -103.99056,-530.66164 -123.25586,-626.43946 z m -699.8457,679.50196 c -0.31213,0.005 -0.72551,0.093 -1.25391,0.24219 -1.3907,0.39277 -6.1293,1.73758 -10.5293,2.98828 l -7.99999,2.27343 6.66796,2.30274 c 13.18087,4.55127 12.6636,4.50583 12.6836,1.11523 0.01,-1.6994 0.39928,-4.50871 0.86328,-6.24218 0.5289,-1.97603 0.50474,-2.69551 -0.43164,-2.67969 z m -49.5566,11.04883 c -0.8159,-0.007 -2.0105,0.16557 -3.2247,0.49414 l -3.533197,0.95507 7.636797,17.5918 c 4.1995,9.67559 7.9631,17.92011 8.3632,18.32031 0.4002,0.4001 1.7265,-0.0168 2.9493,-0.92578 2.0318,-1.5106 1.6742,-3.11298 -4.1563,-18.60156 -3.509,-9.32149 -6.6838,-17.25019 -7.0547,-17.62109 -0.139,-0.13905 -0.4909,-0.20857 -0.9804,-0.21289 z m 27.5019,70.15234 c -0.2925,0.0458 -0.5768,0.33091 -1.0273,0.60937 -2.4661,1.5241 23.69242,47.42323 41.23434,72.35349 3.74101,5.3167 7.23472,9.6281 7.76563,9.5781 0.53087,-0.05 2.30128,-0.7355 3.93359,-1.5234 2.91904,-1.409 2.86234,-1.5559 -3.42774,-8.9102 -15.78556,-18.45646 -29.6199,-38.59566 -40.85546,-59.4765 -5.78866,-10.75788 -6.74556,-12.76839 -7.62306,-12.63086 z" />
    <path
       id="path382"
       style="fill:#a05a2c;stroke-width:1.33333"
       d="M 835.13672 12.884766 C 834.85799 12.869465 834.59516 12.931483 834.35156 13.082031 C 833.63987 13.521881 831.93279 16.358569 830.55859 19.384766 C 828.13276 24.72681 828.05965 37.448394 828.03125 456.55273 L 828.00195 888.2207 L 831.66797 888.23828 C 833.68464 888.24828 836.58497 888.59155 838.11328 889.00195 L 840.89258 889.74805 L 841.7793 672.65039 C 843.17465 331.31864 842.90321 28.466357 841.19531 22.220703 C 839.76087 16.975031 837.08779 12.991873 835.13672 12.884766 z M 239.24609 805.04297 C 214.94456 805.22138 206.96892 807.40186 157.82227 822.14453 C 116.03996 834.67805 97.589224 838.3127 52.667969 842.86133 C 37.267984 844.42069 23.918652 845.94572 23.001953 846.25 C 20.787855 846.98495 20.892227 851.24919 23.265625 856.92969 C 25.564023 862.43038 24.256281 862.37701 52.001953 858.10352 C 108.37069 849.42147 125.48414 846.19926 150.66797 839.52734 C 190.39134 829.00348 193.18568 828.57332 228.00195 827.61328 C 271.90155 826.40277 293.56826 824.07033 305.66797 819.25391 C 311.76004 816.82888 312.0129 814.33263 306.50391 810.98242 C 300.14608 807.116 282.57618 805.24583 250.82812 805.05859 C 246.52249 805.0332 242.71774 805.01748 239.24609 805.04297 z M 1072.9473 811.38672 C 1072.4812 810.92064 1055.8776 814.5903 1036.0508 819.54102 L 1000.002 828.54297 L 1000.002 833.71484 C 1000.002 837.30939 1000.582 838.88672 1001.9062 838.88672 C 1002.9542 838.88672 1013.4132 836.78736 1025.1484 834.2207 C 1036.8835 831.65404 1046.8273 829.55273 1047.2441 829.55273 C 1050.9338 829.55273 1040.1431 893.42121 1029.9863 931.70117 C 1016.8926 981.04964 999.73613 1016.7338 979.53711 1036.6367 C 972.9144 1043.1623 967.27179 1046.9402 953.85938 1053.8242 C 932.62316 1064.7238 916.49445 1071.3027 900.00195 1075.791 C 882.6889 1080.5026 876.6104 1080.5675 586.66797 1079.1328 L 344.66797 1077.9355 L 325.20898 1073.7891 C 288.0293 1065.8659 271.23252 1059.0669 257.80469 1046.5059 C 243.89435 1033.4935 215.95014 996.83113 176.17969 939.41797 L 158.53906 913.94922 L 154.125 918.08594 C 151.6978 920.36034 148.27724 923.20786 146.52344 924.41406 L 143.33398 926.60547 L 147.78125 935.74609 C 156.74934 954.18125 173.44221 978.76631 190.26172 998.30859 C 198.22849 1007.565 198.28948 1007.6032 204.32812 1007.123 C 220.40781 1005.8441 232.397 1019.778 226.44922 1032.832 C 224.99073 1036.033 225.40259 1036.694 233.32031 1043.8945 C 256.88752 1065.3268 280.02399 1081.0839 295.84961 1086.4785 L 304.66797 1089.4844 L 603.33398 1089.3848 C 779.76351 1089.3261 904.18346 1088.7844 907.33398 1088.0605 C 938.28834 1080.9482 986.01039 1053.8822 1003.6035 1033.459 C 1026.3635 1007.038 1048.2553 945.67779 1065.1738 860.88672 C 1071.4906 829.22892 1074.1099 812.54936 1072.9473 811.38672 z M 65.359375 817.28906 L 57.679688 818.04883 C 53.455992 818.46724 44.451262 819.19065 37.667969 819.65625 C 30.884576 820.12184 25.333984 820.89952 25.333984 821.38477 C 25.333984 821.87001 26.857099 824.50724 28.716797 827.24414 C 30.576595 829.98104 32.826598 832.14549 33.716797 832.05469 C 51.990979 830.19014 68.502747 828.1633 68.935547 827.73047 C 69.240647 827.42542 68.56168 824.95116 67.425781 822.23242 L 65.359375 817.28906 z M 1034.248 845.55273 C 1033.8149 845.55273 1024.8829 847.42006 1014.3984 849.70117 C 993.45813 854.25717 990.57412 855.23017 954.66797 869.84766 C 914.8591 886.05394 862.77298 902.63552 844.69727 904.85742 C 841.78013 905.21602 833.38077 906.70873 826.03125 908.17383 C 734.79739 926.36001 569.6796 933.19911 440.66797 924.13672 C 429.66798 923.36402 415.56732 922.46924 409.33398 922.14844 C 392.89971 921.30284 342.96193 915.52679 305.90234 910.18359 C 241.79221 900.9404 179.77628 887.15042 135.66797 872.33203 C 127.05138 869.43713 120.00195 867.25703 120.00195 867.48633 C 120.00195 867.94183 125.89221 884.02461 128.19141 889.8457 C 129.571 893.3386 129.76437 893.40107 133.41406 891.51367 C 135.49796 890.43607 139.22793 889.55273 141.70312 889.55273 C 144.76142 889.55273 147.19101 888.50073 149.28711 886.26953 L 152.37305 882.98633 L 158.20508 888.12109 C 167.95792 896.70589 186.28389 908.23697 207.33398 919.03516 C 273.86238 953.16249 359.12901 974.1507 464.00195 982.21289 C 496.6302 984.72129 578.59494 985.80797 614.00195 984.20117 C 720.33378 979.37548 813.17593 966.72112 897.33398 945.58398 C 957.5159 930.46874 1022.7352 907.72076 1025.3105 900.94727 C 1028.1835 893.39067 1035.902 845.55273 1034.248 845.55273 z M 871.82812 854.99609 C 866.12086 855.00177 858.24948 856.10598 856.94922 857.40625 C 856.21271 858.14275 855.36487 863.12673 855.06641 868.48242 C 854.76795 873.83812 855.00628 880.65667 855.5957 883.63477 L 856.66797 889.05078 L 868.00195 886.23633 L 879.33398 883.42383 L 880.48828 874.51172 C 882.06633 862.31513 880.84581 856.48382 876.49023 855.39062 C 875.3926 855.11515 873.73055 854.9942 871.82812 854.99609 z M 804.87695 865.07617 C 799.58308 865.0225 792.93387 865.67395 790.83203 866.79883 C 788.05594 868.28453 787.93573 869.09397 788.29297 883.84766 C 788.51025 892.82045 789.22952 899.43908 790.00195 899.58008 C 790.73528 899.71398 795.93192 899.24561 801.55078 898.54102 C 813.57669 897.03302 813.28931 897.50361 813.31641 879.29883 C 813.32884 870.93204 812.80586 866.70807 811.66797 865.98438 C 810.74129 865.39499 808.05328 865.10838 804.87695 865.07617 z M 376.39062 865.82812 C 373.15425 865.81802 370.33941 866.11061 369.33398 866.78906 C 367.72714 867.87336 367.35036 871.41677 367.41406 884.81445 C 367.45765 893.98614 367.8694 901.86743 368.33008 902.32812 C 368.79075 902.78872 373.55557 904.00279 378.91797 905.02539 C 384.28037 906.04809 389.46345 906.88387 390.43555 906.88477 C 392.8712 906.88687 392.14886 870.49277 389.66406 868.01367 C 388.35032 866.70299 381.78458 865.84496 376.39062 865.82812 z M 82.425781 867.2207 C 80.725083 867.0381 72.451854 867.9381 64.039062 869.2207 L 48.742188 871.55273 L 49.205078 894.2207 C 49.459078 906.68729 50.0413 944.84419 50.5 979.01367 L 51.333984 1041.1387 L 56.667969 1051.6797 C 63.498562 1065.1788 75.983471 1078.1022 87.880859 1083.9902 C 98.298749 1089.1459 101.73785 1089.5729 97.630859 1085.2012 C 94.278863 1081.6331 90.667969 1073.4731 90.667969 1069.4648 C 90.667969 1067.9021 91.670786 1064.5107 92.896484 1061.9277 C 94.931082 1057.6402 97.804115 1055.9319 125.89648 1042.3086 C 142.82082 1034.1012 159.18201 1026.299 162.25391 1024.9707 L 167.83789 1022.5547 L 158.81836 1009.0547 C 146.65067 990.84335 130.78544 964.42714 124.68555 952.2207 C 121.93705 946.7207 119.5046 942.01572 119.2793 941.76562 C 119.0541 941.51553 113.24765 944.66556 106.37695 948.76562 C 92.18907 957.23232 87.146577 958.07535 79.896484 953.18945 C 73.122691 948.62466 69.333984 942.18161 69.333984 935.22852 C 69.333984 925.72503 72.172619 922.5635 88.158203 914.25781 L 102.49805 906.80664 L 100.66016 902.51367 C 86.628173 869.726 85.504978 867.5513 82.425781 867.2207 z M 142.22461 902.11914 C 141.77723 902.13773 141.32175 902.21836 140.86133 902.36328 C 136.07728 903.86928 81.416277 932.34072 80.517578 933.79492 C 80.055979 934.54172 80.860289 936.7441 82.304688 938.6875 C 86.945483 944.93189 90.746552 943.94608 111.36133 931.1543 C 151.89094 906.00492 149.87402 907.61621 145.86133 903.60352 C 144.82738 902.56957 143.56674 902.06337 142.22461 902.11914 z M 176.00195 917.04492 C 176.00195 917.99262 181.46678 925.98011 201.76172 954.68555 C 221.58232 982.72007 217.54797 979.79173 252.66797 991.60742 C 324.06328 1015.6274 411.99208 1030.5461 515.33398 1036.1699 L 515.33398 1036.168 C 537.76648 1037.3887 629.69918 1037.7371 647.33398 1036.668 C 761.44225 1029.7504 863.05531 1010.7157 962.66797 977.5957 C 1002.5644 964.33052 1007.9747 961.94298 1010.1992 956.61914 C 1011.8432 952.68444 1021.334 921.0173 1021.334 919.4668 C 1021.334 919.1695 1018.184 920.19755 1014.334 921.75195 C 926.11731 957.36829 809.19737 982.47705 683.33398 992.83594 C 598.27197 999.83723 505.60655 999.82026 435.33398 992.78906 C 336.57012 982.90727 243.87977 956.74204 186.33398 922.5 C 180.65066 919.1182 176.00195 916.66282 176.00195 917.04492 z M 1002.2051 977.98047 C 1001.9877 977.76317 994.05317 980.32739 984.57227 983.67969 C 894.1818 1015.6404 793.25296 1037.3932 694.66797 1046.1602 C 581.95692 1056.1832 450.86046 1049.885 346.66797 1029.4414 C 312.06554 1022.6521 267.14724 1010.9277 245.55859 1003.0488 C 239.56841 1000.8627 234.66797 999.37383 234.66797 999.74023 C 234.66797 1001.1617 253.10159 1023.9661 261.23242 1032.6035 C 267.8784 1039.6635 272.20968 1042.8608 280.56641 1046.8809 C 293.1481 1052.9334 315.42797 1059.0867 338.00781 1062.7441 C 353.34789 1065.2289 364.97942 1065.3697 617.3418 1066.1211 C 871.49939 1066.8778 881.06325 1066.8176 892.00195 1064.4043 C 912.56733 1059.8672 951.43403 1042.7367 966.86914 1031.4062 C 975.57477 1025.0158 987.99957 1008.1395 995.98828 991.85547 C 999.62572 984.44098 1002.4224 978.19787 1002.2051 977.98047 z M 209.08008 1020.248 C 202.99762 1020.0953 191.11418 1025.3563 155.55859 1042.2383 C 106.03259 1065.7534 102.66797 1067.541 102.66797 1070.3281 C 102.66797 1072.9906 110.3813 1081.2962 113.75 1082.2617 C 115.3548 1082.7216 117.58077 1083.3473 118.69727 1083.6523 C 120.87756 1084.2478 145.32505 1071.3088 178.66797 1051.9102 C 213.77367 1031.486 219.84244 1026.3266 213.89062 1021.9746 C 212.4903 1020.9507 211.10756 1020.299 209.08008 1020.248 z M 195.02539 1057.4219 L 166.56445 1073.4883 L 138.10156 1089.5527 L 181.26367 1089.5527 L 224.42383 1089.5527 L 216.52148 1081.2207 C 212.17566 1076.6373 205.56109 1069.4071 201.82227 1065.1543 L 195.02539 1057.4219 z " />
    <path
       style="fill:#e9ddaf;display:inline;stroke-width:1.33333"
       d="M 718.00125,800.18781 C 660.31289,796.36725 609.30565,786.57177 458.66792,750.38517 296.4363,711.41346 236.81854,700.20789 169.41464,696.01801 l -25.40337,-1.57908 5.3455,-9.91026 c 28.69856,-53.20521 95.35196,-124.29218 206.03419,-219.73888 32.08629,-27.66958 81.81016,-68.88142 159.94362,-132.56357 133.52054,-108.825 186.10171,-154.58997 235.33834,-204.83099 21.64072,-22.08216 35.64868,-37.722436 48.26572,-53.890006 l 3.60406,-4.61827 0.0451,60.666666 c 0.0412,55.55305 -0.99193,221.5108 -3.35943,539.63537 l -0.90521,121.63539 -6.82757,2.54392 c -9.27176,3.45461 -20.34907,5.62536 -34.76095,6.81188 -17.58237,1.44753 -16.99325,1.44743 -38.73331,0.008 z"
       id="path384" />
  </g>
</svg>
